<svg width="20" height="20" viewBox="0 0 20 20" fill="none" xmlns="http://www.w3.org/2000/svg">
<path fill-rule="evenodd" clip-rule="evenodd" d="M3.78325 1.66667H6.59991C7.77491 1.66667 8.71658 2.62501 8.71658 3.80084V6.64167C8.71658 7.825 7.77491 8.775 6.59991 8.775H3.78325C2.61658 8.775 1.66658 7.825 1.66658 6.64167V3.80084C1.66658 2.62501 2.61658 1.66667 3.78325 1.66667ZM3.78325 11.2248H6.59991C7.77491 11.2248 8.71658 12.1756 8.71658 13.3589V16.1998C8.71658 17.3748 7.77491 18.3331 6.59991 18.3331H3.78325C2.61658 18.3331 1.66658 17.3748 1.66658 16.1998V13.3589C1.66658 12.1756 2.61658 11.2248 3.78325 11.2248ZM16.2167 1.66667H13.4C12.225 1.66667 11.2833 2.62501 11.2833 3.80084V6.64167C11.2833 7.825 12.225 8.775 13.4 8.775H16.2167C17.3833 8.775 18.3333 7.825 18.3333 6.64167V3.80084C18.3333 2.62501 17.3833 1.66667 16.2167 1.66667ZM13.4 11.2248H16.2167C17.3833 11.2248 18.3333 12.1756 18.3333 13.3589V16.1998C18.3333 17.3748 17.3833 18.3331 16.2167 18.3331H13.4C12.225 18.3331 11.2833 17.3748 11.2833 16.1998V13.3589C11.2833 12.1756 12.225 11.2248 13.4 11.2248Z" fill="#3DBDBC"/>
</svg>
