<svg width="20" height="21" viewBox="0 0 20 21" fill="none" xmlns="http://www.w3.org/2000/svg">
<path d="M9.99805 12.5002L9.99726 12.5002C9.9534 12.5004 9.90991 12.492 9.8693 12.4754C9.82893 12.4589 9.79219 12.4347 9.76117 12.4041C9.76098 12.4039 9.76079 12.4037 9.7606 12.4035L6.42871 9.0716C6.36556 9.00845 6.33008 8.9228 6.33008 8.83349C6.33008 8.74418 6.36556 8.65853 6.42871 8.59538C6.49186 8.53222 6.57751 8.49675 6.66682 8.49675C6.75604 8.49675 6.8416 8.53215 6.90473 8.59517C6.9048 8.59524 6.90487 8.59531 6.90493 8.59538L9.64606 11.3448L9.99962 11.6995L10.3537 11.3454L13.0786 8.62045C13.1406 8.57203 13.2178 8.54698 13.2967 8.55002C13.3806 8.55326 13.4602 8.58804 13.5196 8.64741C13.5789 8.70677 13.6137 8.78635 13.617 8.87024C13.62 8.94914 13.5949 9.02638 13.5465 9.08834L10.2314 12.4035C10.2312 12.4037 10.231 12.4039 10.2308 12.404C10.1688 12.4653 10.0852 12.4998 9.99805 12.5002Z" fill="#060606" stroke="#060606"/>
</svg>
