<svg width="15" height="16" viewBox="0 0 15 16" fill="none" xmlns="http://www.w3.org/2000/svg">
<path d="M5.71166 4.07155C6.49213 2.51285 6.88236 1.7335 7.5 1.7335C8.11764 1.7335 8.50787 2.51285 9.28834 4.07155L9.34934 4.19338C9.57871 4.65146 9.6934 4.8805 9.89262 5.02419C10.0918 5.16788 10.3454 5.20441 10.8524 5.27748L10.9445 5.29074C12.7085 5.54492 13.5905 5.67201 13.7817 6.2667C13.9728 6.86139 13.3229 7.48539 12.0231 8.7334C11.6436 9.09781 11.4538 9.28002 11.3761 9.51709C11.2984 9.75417 11.3431 10.0108 11.4324 10.5242L11.4433 10.5868C11.7448 12.3196 11.8955 13.1859 11.395 13.5527C10.8945 13.9194 10.1138 13.5147 8.5524 12.7052L8.4205 12.6368C7.96937 12.4029 7.7438 12.286 7.5 12.286C7.2562 12.286 7.03063 12.4029 6.5795 12.6368L6.4476 12.7052C4.88617 13.5147 4.10546 13.9194 3.60498 13.5527C3.1045 13.1859 3.25523 12.3196 3.5567 10.5868L3.56759 10.5242C3.6569 10.0108 3.70156 9.75417 3.62386 9.51709C3.54615 9.28002 3.35639 9.09781 2.97686 8.7334C1.67708 7.48539 1.0272 6.86139 1.21834 6.2667C1.40949 5.67201 2.2915 5.54492 4.05551 5.29074L4.14755 5.27748C4.65462 5.20441 4.90815 5.16788 5.10738 5.02419C5.3066 4.8805 5.42129 4.65146 5.65066 4.19338L5.71166 4.07155Z" fill="#FEAE37"/>
</svg>
