<svg width="24" height="25" viewBox="0 0 24 25" fill="none" xmlns="http://www.w3.org/2000/svg">
<g opacity="0.2">
<path d="M11.9998 2.49982C10.022 2.49982 8.08861 3.08631 6.44412 4.18512C4.79963 5.28394 3.5179 6.84572 2.76103 8.67298C2.00415 10.5002 1.80612 12.5109 2.19197 14.4507C2.57782 16.3905 3.53023 18.1724 4.92875 19.5709C6.32728 20.9694 8.10911 21.9218 10.0489 22.3077C11.9887 22.6935 13.9994 22.4955 15.8267 21.7386C17.6539 20.9817 19.2157 19.7 20.3145 18.0555C21.4133 16.411 21.9998 14.4776 21.9998 12.4998C21.9998 11.1866 21.7412 9.88624 21.2386 8.67298C20.7361 7.45973 19.9995 6.35733 19.0709 5.42875C18.1423 4.50016 17.0399 3.76357 15.8267 3.26102C14.6134 2.75847 13.313 2.49982 11.9998 2.49982ZM11.9998 20.4998C10.4176 20.4998 8.87085 20.0306 7.55526 19.1516C6.23967 18.2725 5.21429 17.0231 4.60879 15.5613C4.00328 14.0995 3.84486 12.4909 4.15354 10.9391C4.46222 9.38725 5.22415 7.96178 6.34297 6.84296C7.46179 5.72414 8.88725 4.96222 10.4391 4.65353C11.9909 4.34485 13.5995 4.50328 15.0613 5.10878C16.5231 5.71428 17.7725 6.73966 18.6516 8.05525C19.5306 9.37085 19.9998 10.9176 19.9998 12.4998C19.9998 14.6215 19.157 16.6564 17.6567 18.1567C16.1564 19.657 14.1216 20.4998 11.9998 20.4998Z" fill="#707070"/>
</g>
</svg>
